# xmcd CD database file
#
# Track frame offsets:
#	150
#	11637
#	22215
#	34925
#	46670
#	58925
#	70560
#	80947
#	93225
#	104827
#	114297
#	126427
#
# Disc length: 1848 seconds
#
# Revision: 1
# Processed by: cddbd v1.5.2PL0 Copyright (c) Steve Scherf et al.
# Submitted via: jetAudio 7
#
DISCID=a607360c
DTITLE=Boots Randolph - Country Boots
DYEAR=1900
DGENRE=Country
TTITLE0=Wabash Cannonball
TTITLE1=Once A Day
TTITLE2=Tennessee Waltz
TTITLE3=Ruby (Don't You Take Your Love To Town)
TTITLE4=Take Me Home, Country Roads
TTITLE5=I Can't Help It (If I'm Still In Love With You)
TTITLE6=Jambalaya (On The Bayou)
TTITLE7=Stand By Your Man
TTITLE8=Today I Started Loving You Again
TTITLE9=Old Joe Clark
TTITLE10=Behind Closed Doors
TTITLE11=Wildwood Flower
EXTD=
EXTT0=
EXTT1=
EXTT2=
EXTT3=
EXTT4=
EXTT5=
EXTT6=
EXTT7=
EXTT8=
EXTT9=
EXTT10=
EXTT11=
PLAYORDER=
